<svg width="314" height="88" viewBox="0 0 314 88" fill="none" xmlns="http://www.w3.org/2000/svg">
<path d="M123.1 44.8002L120.272 47.6287L120.339 47.696L120.409 47.76L123.1 44.8002ZM122.6 52.0002L119.477 49.5015L119.437 49.5503L119.4 49.6002L122.6 52.0002ZM117.8 54.1002L117.851 58.0999L117.886 58.0995L117.921 58.0984L117.8 54.1002ZM103.6 52.9002L104.408 48.9828L101.32 48.3456L99.9796 51.1994L103.6 52.9002ZM86.7 77.7002L83.8716 74.8718L83.8716 74.8718L86.7 77.7002ZM54.1 78.2002L50.4772 79.896L50.4807 79.9035L50.4843 79.9109L54.1 78.2002ZM49.1 53.1002L53.0971 52.9475L45.3185 51.7963L49.1 53.1002ZM35.5 79.0002L32.5181 76.3341L32.5094 76.3439L32.5007 76.3538L35.5 79.0002ZM5 75.6002L1.29681 77.1124L1.30129 77.1232L5 75.6002ZM2.7 11.1002L6.65705 11.6848L6.65927 11.6698L6.66137 11.6548L2.7 11.1002ZM5.2 4.20024L2.3 1.44523L2.29619 1.44926L5.2 4.20024ZM15.7 3.50024L13.1776 6.6047L13.2234 6.64186L13.2702 6.67767L15.7 3.50024ZM17.2 11.0002L21.1578 11.5794L21.1711 11.4891L21.1802 11.3982L17.2 11.0002ZM31.1 66.6002L27.7856 64.3608L27.7788 64.371L31.1 66.6002ZM41 44.8002L44.7868 46.0888L44.7895 46.0808L41 44.8002ZM49.3 10.3002L45.3592 9.61488L45.3579 9.62237L45.3566 9.62986L49.3 10.3002ZM52.2 4.00024L54.7168 7.10922L54.7249 7.10266L54.733 7.09607L52.2 4.00024ZM62.6 3.60024L59.7716 6.42867L59.8725 6.52955L59.9803 6.62299L62.6 3.60024ZM63.9 10.1002L59.9953 9.23253L59.9742 9.32733L59.9577 9.42304L63.9 10.1002ZM61.8 60.4002L57.8223 60.8221L57.8255 60.8519L57.8291 60.8816L61.8 60.4002ZM64.7 70.5002L61.27 72.5582L61.3049 72.6163L61.3417 72.6732L64.7 70.5002ZM81.7 66.7002L84.7939 69.2355L84.8025 69.2251L84.811 69.2146L81.7 66.7002ZM92.5 48.6002L96.1426 50.2529L97.5916 47.0594L94.615 45.2051L92.5 48.6002ZM83.3 38.8002L79.7341 40.6124L79.7401 40.6244L79.7463 40.6363L83.3 38.8002ZM82.6 11.5002L78.9585 9.84503L78.9516 9.86033L78.9448 9.87569L82.6 11.5002ZM89.3 3.30024L87.1729 -0.0873163L87.1549 -0.0759895L87.137 -0.0644713L89.3 3.30024ZM108.9 5.20024L105.783 7.70728L105.8 7.72763L105.816 7.74777L108.9 5.20024ZM107.8 42.9002L104.031 41.5618L102.448 46.0177L107.105 46.8394L107.8 42.9002ZM96.6 38.6002L94.2082 41.8063L98.5827 45.0699L100.378 39.9156L96.6 38.6002ZM99.4 14.0002L95.8951 15.9279L95.9163 15.9664L95.9383 16.0044L99.4 14.0002ZM92 15.2002L95.5073 17.1236L95.52 17.1003L95.5325 17.0769L92 15.2002ZM119.8 47.8002C120.296 47.8002 120.543 47.8564 120.615 47.8783C120.672 47.8955 120.495 47.8522 120.272 47.6287L125.928 41.9718C124.158 40.2015 121.759 39.8002 119.8 39.8002V47.8002ZM120.409 47.76C120.395 47.747 120.366 47.7173 120.331 47.6694C120.296 47.6209 120.265 47.5658 120.241 47.5088C120.19 47.3874 120.2 47.3311 120.2 47.4002H128.2C128.2 45.3031 127.427 43.3278 125.791 41.8405L120.409 47.76ZM120.2 47.4002C120.2 48.2402 119.967 48.889 119.477 49.5015L125.723 54.499C127.367 52.4449 128.2 50.0269 128.2 47.4002H120.2ZM119.4 49.6002C119.349 49.668 119.082 50.0595 117.679 50.1021L117.921 58.0984C120.918 58.0076 123.851 56.9992 125.8 54.4002L119.4 49.6002ZM117.749 50.1006C112.709 50.1644 108.27 49.7797 104.408 48.9828L102.792 56.8177C107.33 57.7541 112.358 58.1694 117.851 58.0999L117.749 50.1006ZM99.9796 51.1994C95.4759 60.7859 90.0925 68.6509 83.8716 74.8718L89.5284 80.5287C96.5076 73.5495 102.391 64.8812 107.22 54.6011L99.9796 51.1994ZM83.8716 74.8718C77.7545 80.9889 72.2455 83.5002 67.3 83.5002V91.5002C75.1545 91.5002 82.5788 87.4783 89.5284 80.5287L83.8716 74.8718ZM67.3 83.5002C65.1136 83.5002 63.3685 82.9372 61.9038 81.9053C60.4029 80.8479 58.9665 79.1331 57.7157 76.4896L50.4843 79.9109C52.1669 83.4674 54.3971 86.4026 57.2962 88.4452C60.2315 90.5133 63.6198 91.5002 67.3 91.5002V83.5002ZM57.7228 76.5045C55.1017 70.905 53.4861 63.1278 53.0971 52.9475L45.1029 53.253C45.5139 64.006 47.2316 72.9622 50.4772 79.896L57.7228 76.5045ZM45.3185 51.7963C41.3982 63.1652 37.0791 71.233 32.5181 76.3341L38.4819 81.6664C44.0543 75.4341 48.8018 66.2353 52.8815 54.4042L45.3185 51.7963ZM32.5007 76.3538C27.9929 81.4625 23.6692 83.5002 19.5 83.5002V91.5002C26.6641 91.5002 33.0071 87.8713 38.4994 81.6467L32.5007 76.3538ZM19.5 83.5002C17.2017 83.5002 15.2958 82.8146 13.6126 81.4332C11.8611 79.9958 10.1696 77.6493 8.69871 74.0772L1.30129 77.1232C3.09709 81.4845 5.45555 85.088 8.53741 87.6173C11.6876 90.2026 15.3983 91.5002 19.5 91.5002V83.5002ZM8.70317 74.0881C5.71088 66.7601 4.1 56.6064 4.1 43.4002H-3.9C-3.9 57.1274 -2.24421 68.4404 1.29683 77.1124L8.70317 74.0881ZM4.1 43.4002C4.1 33.8315 4.94659 23.2633 6.65705 11.6848L-1.25706 10.5157C-3.01326 22.4038 -3.9 33.369 -3.9 43.4002H4.1ZM6.66137 11.6548C7.10341 8.49741 7.80357 7.26814 8.10382 6.95121L2.29619 1.44926C0.196435 3.66567 -0.770072 7.03641 -1.26137 10.5456L6.66137 11.6548ZM8.1 6.95524C8.32606 6.71728 9.03169 6.20024 11.1 6.20024V-1.79976C7.83498 -1.79976 4.60728 -0.983465 2.3 1.44524L8.1 6.95524ZM11.1 6.20024C12.5875 6.20024 13.0858 6.53005 13.1776 6.6047L18.2224 0.395785C16.1809 -1.26291 13.6125 -1.79976 11.1 -1.79976V6.20024ZM13.2702 6.67767C13.1121 6.55674 13.1302 6.47584 13.2045 6.68563C13.2908 6.92943 13.4 7.43027 13.4 8.30024H21.4C21.4 5.50944 20.7448 2.32248 18.1298 0.322811L13.2702 6.67767ZM13.4 8.30024C13.4 8.53639 13.3559 9.24214 13.2199 10.6022L21.1802 11.3982C21.3108 10.0917 21.4 8.99743 21.4 8.30024H13.4ZM13.2422 10.421C11.2251 24.204 10.2 36.0427 10.2 45.9002H18.2C18.2 36.5578 19.1749 25.1298 21.1578 11.5794L13.2422 10.421ZM10.2 45.9002C10.2 54.9841 10.9703 62.3603 12.6849 67.8023L20.3151 65.3982C18.9631 61.1069 18.2 54.683 18.2 45.9002H10.2ZM12.6849 67.8023C13.5271 70.4755 14.6275 72.8706 16.1512 74.6646C17.7555 76.5536 19.9624 77.9002 22.7 77.9002V69.9002C22.6902 69.9002 22.6954 69.8995 22.7078 69.9025C22.7199 69.9055 22.7185 69.9072 22.6994 69.8972C22.6603 69.8768 22.5006 69.7824 22.2488 69.4859C21.7058 68.8465 21.0062 67.5916 20.3151 65.3982L12.6849 67.8023ZM22.7 77.9002C25.259 77.9002 27.452 76.5908 29.1738 75.0944C30.9477 73.5528 32.6908 71.4074 34.4212 68.8295L27.7788 64.371C26.2425 66.6598 24.9523 68.1643 23.9262 69.056C22.848 69.993 22.4743 69.9002 22.7 69.9002V77.9002ZM34.4144 68.8397C38.038 63.4768 41.4738 55.8249 44.7868 46.0888L37.2132 43.5117C33.9929 52.9755 30.8287 59.8571 27.7856 64.3608L34.4144 68.8397ZM44.7895 46.0808C48.141 36.1631 50.9521 24.4488 53.2434 10.9706L45.3566 9.62986C43.1145 22.8184 40.3923 34.1041 37.2105 43.5197L44.7895 46.0808ZM53.2409 10.9856C53.7186 8.23867 54.4516 7.32389 54.7168 7.10922L49.6832 0.891264C47.1484 2.94326 45.9481 6.22848 45.3592 9.61488L53.2409 10.9856ZM54.733 7.09607C55.2936 6.63739 56.2747 6.20024 58.1 6.20024V-1.79976C54.9919 -1.79976 52.0398 -1.03691 49.6671 0.90441L54.733 7.09607ZM58.1 6.20024C58.8497 6.20024 59.3209 6.28695 59.5867 6.36967C59.835 6.4469 59.8428 6.49992 59.7716 6.42867L65.4284 0.771812C63.4145 -1.24209 60.6447 -1.79976 58.1 -1.79976V6.20024ZM59.9803 6.62299C59.9379 6.58628 59.9457 6.56404 59.9797 6.65473C60.0234 6.77124 60.1 7.0586 60.1 7.60024H68.1C68.1 5.07888 67.3809 2.45054 65.2197 0.577485L59.9803 6.62299ZM60.1 7.60024C60.1 8.55461 60.0356 9.05117 59.9953 9.23253L67.8048 10.9679C68.0311 9.94931 68.1 8.7792 68.1 7.60024H60.1ZM59.9577 9.42304C58.0532 20.5101 57.1 31.6033 57.1 42.7002H65.1C65.1 32.0638 66.0135 21.4237 67.8423 10.7774L59.9577 9.42304ZM57.1 42.7002C57.1 50.1612 57.3342 56.2202 57.8223 60.8221L65.7777 59.9784C65.3324 55.7803 65.1 50.0393 65.1 42.7002H57.1ZM57.8291 60.8816C58.3926 65.5308 59.4553 69.5336 61.27 72.5582L68.13 68.4423C67.1447 66.8002 66.2741 64.0696 65.7709 59.9189L57.8291 60.8816ZM61.3417 72.6732C63.5565 76.0961 66.9303 77.9002 71 77.9002V69.9002C69.6031 69.9002 68.7768 69.4377 68.0583 68.3272L61.3417 72.6732ZM71 77.9002C76.1411 77.9002 80.7492 74.1715 84.7939 69.2355L78.6061 64.165C74.7842 68.829 72.2589 69.9002 71 69.9002V77.9002ZM84.811 69.2146C89.0046 64.0259 92.7709 57.6845 96.1426 50.2529L88.8574 46.9476C85.6958 53.9159 82.2621 59.6413 78.589 64.1859L84.811 69.2146ZM94.615 45.2051C91.1187 43.0271 88.5685 40.2831 86.8537 36.9642L79.7463 40.6363C82.1648 45.3174 85.748 49.1067 90.385 51.9954L94.615 45.2051ZM86.8659 36.988C85.1258 33.5638 84.2 29.5347 84.2 24.8002H76.2C76.2 30.5991 77.3409 35.9033 79.7341 40.6124L86.8659 36.988ZM84.2 24.8002C84.2 19.9145 84.9454 16.072 86.2553 13.1248L78.9448 9.87569C77.0546 14.1285 76.2 19.1526 76.2 24.8002H84.2ZM86.2415 13.1555C87.6573 10.0406 89.4346 7.96898 91.463 6.66496L87.137 -0.0644713C83.5655 2.2315 80.876 5.62657 78.9585 9.84503L86.2415 13.1555ZM91.4271 6.6878C93.6404 5.29804 96.0667 4.60024 98.8 4.60024V-3.39976C94.6 -3.39976 90.6929 -2.29756 87.1729 -0.0873163L91.4271 6.6878ZM98.8 4.60024C101.972 4.60024 104.146 5.67185 105.783 7.70728L112.017 2.69321C108.721 -1.40469 104.161 -3.39976 98.8 -3.39976V4.60024ZM105.816 7.74777C107.582 9.8857 108.7 13.0789 108.7 17.8002H116.7C116.7 11.855 115.284 6.64811 111.984 2.65272L105.816 7.74777ZM108.7 17.8002C108.7 24.7652 107.187 32.671 104.031 41.5618L111.569 44.2387C114.946 34.7294 116.7 25.902 116.7 17.8002H108.7ZM107.105 46.8394C110.795 47.4907 115.039 47.8002 119.8 47.8002V39.8002C115.362 39.8002 111.605 39.5098 108.495 38.9611L107.105 46.8394ZM86.3 24.1002C86.3 31.5499 88.7475 37.7325 94.2082 41.8063L98.9919 35.3941C96.0525 33.2013 94.3 29.7172 94.3 24.1002H86.3ZM100.378 39.9156C103.045 32.2559 104.5 25.6064 104.5 20.1002H96.5C96.5 24.3274 95.3552 30.0112 92.8225 37.2849L100.378 39.9156ZM104.5 20.1002C104.5 17.1322 104.143 14.21 102.862 11.9961L95.9383 16.0044C96.1232 16.3238 96.5 17.4683 96.5 20.1002H104.5ZM102.905 12.0726C101.637 9.7676 99.4447 8.00024 96.4 8.00024V16.0002C96.3621 16.0002 96.28 15.9947 96.1713 15.9627C96.0609 15.9302 95.9609 15.8816 95.8812 15.8284C95.7227 15.7227 95.7579 15.6784 95.8951 15.9279L102.905 12.0726ZM96.4 8.00024C92.6159 8.00024 90.0211 10.3993 88.4675 13.3236L95.5325 17.0769C95.9045 16.3766 96.1957 16.113 96.3027 16.0352C96.3498 16.0009 96.3651 15.9991 96.3541 16.0027C96.3428 16.0064 96.3515 16.0002 96.4 16.0002V8.00024ZM88.4928 13.2769C86.8918 16.1962 86.3 19.9441 86.3 24.1002H94.3C94.3 20.5231 94.8415 18.3376 95.5073 17.1236L88.4928 13.2769ZM152.28 68.9002L148.825 70.9157L148.885 71.0193L148.951 71.119L152.28 68.9002ZM151.38 78.4002L148.032 76.2112L148.028 76.2176L151.38 78.4002ZM143.98 85.1002L142.129 81.5539L142.113 81.5623L142.097 81.5708L143.98 85.1002ZM118.28 81.8002L115.327 84.4985L115.339 84.5113L115.35 84.524L118.28 81.8002ZM115.88 53.4002L119.469 55.1647L119.475 55.1528L119.481 55.1409L115.88 53.4002ZM123.88 43.9002L121.646 40.5819L121.631 40.592L121.616 40.6022L123.88 43.9002ZM144.88 43.9002L142.051 46.7287L142.072 46.7492L142.093 46.7694L144.88 43.9002ZM143.38 65.1002L140.551 62.2718L140.551 62.2718L143.38 65.1002ZM126.58 72.9002L125.633 69.014L120.671 70.2231L123.033 74.7505L126.58 72.9002ZM141.38 75.6002L139.078 72.329L139.048 72.3496L139.02 72.3707L141.38 75.6002ZM147.58 69.2002L144.456 66.7015L144.439 66.7229L144.422 66.7445L147.58 69.2002ZM127.58 54.5002L124.157 52.4306L124.139 52.46L124.122 52.4898L127.58 54.5002ZM125.08 65.1002H121.08V70.1605L126.003 68.9922L125.08 65.1002ZM134.38 60.9002L131.837 57.8125L131.837 57.8125L134.38 60.9002ZM136.68 51.4002L133.607 53.961L133.723 54.1004L133.851 54.2287L136.68 51.4002ZM150.28 71.7002C150.073 71.7002 149.729 71.6448 149.372 71.4302C149.027 71.2232 148.866 70.9862 148.825 70.9157L155.735 66.8848C154.611 64.9588 152.684 63.7002 150.28 63.7002V71.7002ZM148.951 71.119C148.889 71.0258 149.08 71.2481 149.08 72.2002H157.08C157.08 70.3524 156.737 68.3746 155.608 66.6814L148.951 71.119ZM149.08 72.2002C149.08 73.9492 148.675 75.227 148.032 76.2112L154.728 80.5892C156.351 78.1068 157.08 75.2513 157.08 72.2002H149.08ZM148.028 76.2176C146.54 78.5015 144.594 80.2682 142.129 81.5539L145.83 88.6466C149.499 86.7323 152.486 84.0323 154.732 80.5829L148.028 76.2176ZM142.097 81.5708C139.798 82.7974 136.875 83.5002 133.18 83.5002V91.5002C137.884 91.5002 142.162 90.6031 145.862 88.6297L142.097 81.5708ZM133.18 83.5002C127.613 83.5002 123.815 81.8789 121.209 79.0765L115.35 84.524C119.811 89.3215 125.947 91.5002 133.18 91.5002V83.5002ZM121.233 79.102C118.528 76.1428 116.98 71.9925 116.98 66.2002H108.98C108.98 73.4746 110.964 79.7244 115.327 84.4985L121.233 79.102ZM116.98 66.2002C116.98 62.1809 117.819 58.5217 119.469 55.1647L112.29 51.6358C110.073 56.1454 108.98 61.0196 108.98 66.2002H116.98ZM119.481 55.1409C121.136 51.7176 123.361 49.1075 126.143 47.1983L121.616 40.6022C117.598 43.3597 114.49 47.0829 112.278 51.6596L119.481 55.1409ZM126.113 47.2186C128.894 45.3467 132.011 44.4002 135.58 44.4002V36.4002C130.482 36.4002 125.798 37.7871 121.646 40.5819L126.113 47.2186ZM135.58 44.4002C138.582 44.4002 140.596 45.2739 142.051 46.7287L147.708 41.0718C144.496 37.86 140.311 36.4002 135.58 36.4002V44.4002ZM142.093 46.7694C143.492 48.1291 144.38 50.1054 144.38 53.2002H152.38C152.38 48.4284 150.934 44.2047 147.667 41.0311L142.093 46.7694ZM144.38 53.2002C144.38 56.7103 143.155 59.6678 140.551 62.2718L146.208 67.9287C150.271 63.866 152.38 58.8902 152.38 53.2002H144.38ZM140.551 62.2718C138.064 64.7587 133.328 67.1385 125.633 69.014L127.527 76.7865C135.698 74.7953 142.162 71.9751 146.208 67.9287L140.551 62.2718ZM123.033 74.7505C124.147 76.8859 125.735 78.6392 127.829 79.8285C129.903 81.0059 132.241 81.5002 134.68 81.5002V73.5002C133.318 73.5002 132.407 73.2279 131.78 72.872C131.174 72.528 130.612 71.9813 130.126 71.05L123.033 74.7505ZM134.68 81.5002C138.028 81.5002 141.154 80.7191 143.74 78.8298L139.02 72.3707C138.138 73.0147 136.798 73.5002 134.68 73.5002V81.5002ZM143.682 78.8715C145.958 77.2698 148.31 74.7768 150.737 71.656L144.422 66.7445C142.183 69.6237 140.402 71.3973 139.078 72.329L143.682 78.8715ZM150.703 71.699C150.855 71.5095 150.898 71.5158 150.797 71.5719C150.745 71.601 150.667 71.6359 150.566 71.6623C150.466 71.6888 150.367 71.7002 150.28 71.7002V63.7002C147.737 63.7002 145.784 65.0422 144.456 66.7015L150.703 71.699ZM133.88 46.2002C129.53 46.2002 126.324 48.8467 124.157 52.4306L131.003 56.5699C132.302 54.4205 133.296 54.2002 133.88 54.2002V46.2002ZM124.122 52.4898C122.028 56.0912 121.08 60.2864 121.08 64.9002H129.08C129.08 61.3808 129.798 58.6426 131.038 56.5107L124.122 52.4898ZM121.08 64.9002V65.1002H129.08V64.9002H121.08ZM126.003 68.9922C130.319 67.968 134.042 66.3605 136.923 63.988L131.837 57.8125C130.185 59.1733 127.707 60.3658 124.156 61.2083L126.003 68.9922ZM136.923 63.988C139.917 61.5218 141.78 58.2934 141.78 54.4002H133.78C133.78 55.4404 133.376 56.5453 131.837 57.8125L136.923 63.988ZM141.78 54.4002C141.78 52.3227 141.152 50.2153 139.508 48.5718L133.851 54.2287C133.829 54.2066 133.805 54.1773 133.784 54.1435C133.762 54.1101 133.752 54.0854 133.749 54.0773C133.743 54.0615 133.78 54.15 133.78 54.4002H141.78ZM139.753 48.8395C138.205 46.9829 136.065 46.2002 133.88 46.2002V54.2002C134.035 54.2002 134.017 54.2254 133.904 54.1768C133.849 54.1533 133.788 54.1193 133.73 54.0752C133.671 54.0314 133.631 53.9896 133.607 53.961L139.753 48.8395ZM184.458 83.0002L187.548 80.4598L187.548 80.4598L184.458 83.0002ZM184.458 56.1002L188.005 57.9488L188.01 57.9387L188.016 57.9285L184.458 56.1002ZM194.258 44.6002L196.562 47.8696L196.573 47.8623L194.258 44.6002ZM210.258 41.1002L207.1 43.556L207.253 43.7526L207.429 43.9287L210.258 41.1002ZM211.558 44.1002L207.657 44.9867L208.513 48.7521L212.306 48.0296L211.558 44.1002ZM219.358 57.2002L223.28 57.9847L223.284 57.9656L223.288 57.9464L219.358 57.2002ZM217.758 75.6002L214.6 78.056L214.681 78.1596L214.768 78.2577L217.758 75.6002ZM224.358 74.1002L227.015 77.0899L227.046 77.0629L227.075 77.0353L224.358 74.1002ZM231.658 66.1002L228.621 63.4971L228.605 63.5155L228.59 63.534L231.658 66.1002ZM236.358 65.9002L232.903 67.9157L232.963 68.0193L233.03 68.119L236.358 65.9002ZM235.258 75.4002L232.231 72.7858L232.184 72.8391L232.14 72.894L235.258 75.4002ZM226.558 84.0002L228.98 87.1836L228.98 87.1836L226.558 84.0002ZM211.558 85.3002L208.964 88.3452L209.024 88.3966L209.087 88.4455L211.558 85.3002ZM207.458 79.1002L211.223 77.7488L208.421 69.9447L204.057 76.9948L207.458 79.1002ZM202.158 74.8002L198.987 72.3614L198.987 72.3614L202.158 74.8002ZM205.058 67.9002L208.973 68.7197L208.976 68.7043L208.979 68.6888L205.058 67.9002ZM208.758 49.5002L212.679 50.2888L213.666 45.3822L208.663 45.5014L208.758 49.5002ZM200.958 52.7002L203.561 55.7373L203.568 55.7313L200.958 52.7002ZM195.358 60.7002L199.046 62.2492L199.046 62.2492L195.358 60.7002ZM194.458 75.9002L191.334 78.399L191.384 78.4605L191.435 78.52L194.458 75.9002ZM194.358 83.5002C191.333 83.5002 189.2 82.4698 187.548 80.4598L181.368 85.5407C184.649 89.5307 189.116 91.5002 194.358 91.5002V83.5002ZM187.548 80.4598C185.806 78.3417 184.758 75.3808 184.758 71.2002H176.758C176.758 76.753 178.176 81.6588 181.368 85.5407L187.548 80.4598ZM184.758 71.2002C184.758 66.5111 185.836 62.1118 188.005 57.9488L180.911 54.2517C178.147 59.5553 176.758 65.2227 176.758 71.2002H184.758ZM188.016 57.9285C190.213 53.6533 193.068 50.3332 196.562 47.8696L191.953 41.3309C187.315 44.6006 183.636 48.9472 180.9 54.272L188.016 57.9285ZM196.573 47.8623C200.102 45.3578 203.672 44.2002 207.358 44.2002V36.2002C201.844 36.2002 196.68 37.976 191.943 41.3382L196.573 47.8623ZM207.358 44.2002C207.592 44.2002 207.761 44.2124 207.875 44.2264C207.99 44.2407 208.024 44.2539 207.997 44.2455C207.954 44.2322 207.512 44.0847 207.1 43.556L213.415 38.6445C211.72 36.4648 209.005 36.2002 207.358 36.2002V44.2002ZM207.429 43.9287C207.219 43.7184 207.215 43.6143 207.313 43.8407C207.402 44.0465 207.526 44.4109 207.657 44.9867L215.458 43.2138C215.095 41.6135 214.465 39.6508 213.086 38.2718L207.429 43.9287ZM212.306 48.0296C213.442 47.8133 214.657 47.7002 215.958 47.7002V39.7002C214.192 39.7002 212.474 39.8538 210.809 40.1709L212.306 48.0296ZM215.958 47.7002C216.549 47.7002 216.94 47.7543 217.175 47.8102C217.408 47.8657 217.412 47.9049 217.308 47.8302C217.178 47.7378 217.026 47.5725 216.927 47.3605C216.838 47.1697 216.858 47.0817 216.858 47.2002H224.858C224.858 44.9822 224.007 42.7841 221.958 41.3203C220.156 40.0336 217.947 39.7002 215.958 39.7002V47.7002ZM216.858 47.2002C216.858 48.1413 216.452 51.0589 215.428 56.4541L223.288 57.9464C224.263 52.8082 224.858 49.0592 224.858 47.2002H216.858ZM215.435 56.4158C213.907 64.0576 213.058 69.7533 213.058 73.2002H221.058C221.058 70.6472 221.742 65.6762 223.28 57.9847L215.435 56.4158ZM213.058 73.2002C213.058 74.8084 213.437 76.5601 214.6 78.056L220.915 73.1445C220.965 73.2085 221.002 73.2703 221.029 73.3239C221.056 73.3769 221.068 73.4147 221.073 73.4302C221.081 73.4582 221.058 73.3944 221.058 73.2002H213.058ZM214.768 78.2577C216.058 79.7083 217.811 80.5002 219.758 80.5002V72.5002C219.87 72.5002 220.07 72.5242 220.299 72.6276C220.529 72.7308 220.677 72.8631 220.747 72.9428L214.768 78.2577ZM219.758 80.5002C222.57 80.5002 225.061 78.8273 227.015 77.0899L221.7 71.1106C220.958 71.7709 220.395 72.1519 220.008 72.3539C219.614 72.5594 219.555 72.5002 219.758 72.5002V80.5002ZM227.075 77.0353C229.068 75.1908 231.632 72.3658 234.726 68.6665L228.59 63.534C225.55 67.168 223.248 69.6764 221.64 71.1652L227.075 77.0353ZM234.695 68.7034C234.83 68.5458 234.865 68.5539 234.774 68.6013C234.728 68.6252 234.662 68.6523 234.581 68.6723C234.499 68.6923 234.422 68.7002 234.358 68.7002V60.7002C231.927 60.7002 229.991 61.8986 228.621 63.4971L234.695 68.7034ZM234.358 68.7002C234.152 68.7002 233.808 68.6448 233.45 68.4302C233.105 68.2232 232.944 67.9862 232.903 67.9157L239.813 63.8848C238.689 61.9588 236.762 60.7002 234.358 60.7002V68.7002ZM233.03 68.119C232.967 68.0258 233.158 68.2481 233.158 69.2002H241.158C241.158 67.3524 240.815 65.3746 239.686 63.6814L233.03 68.119ZM233.158 69.2002C233.158 71.2679 232.668 72.2788 232.231 72.7858L238.285 78.0147C240.381 75.5884 241.158 72.466 241.158 69.2002H233.158ZM232.14 72.894C229.584 76.0736 226.913 78.7041 224.136 80.8169L228.98 87.1836C232.336 84.6297 235.465 81.5269 238.375 77.9065L232.14 72.894ZM224.136 80.8169C221.528 82.8014 219.392 83.5002 217.658 83.5002V91.5002C221.657 91.5002 225.455 89.8658 228.98 87.1836L224.136 80.8169ZM217.658 83.5002C216.427 83.5002 215.25 83.1146 214.029 82.155L209.087 88.4455C211.598 90.4192 214.489 91.5002 217.658 91.5002V83.5002ZM214.152 82.2553C212.967 81.2457 211.96 79.8033 211.223 77.7488L203.693 80.4517C204.822 83.5972 206.549 86.2881 208.964 88.3452L214.152 82.2553ZM204.057 76.9948C201.109 81.7561 197.882 83.5002 194.358 83.5002V91.5002C201.367 91.5002 206.873 87.6444 210.859 81.2057L204.057 76.9948ZM197.958 81.4002C201.184 81.4002 203.622 79.4568 205.328 77.2391L198.987 72.3614C198.524 72.9639 198.182 73.2379 198.002 73.3492C197.855 73.4403 197.859 73.4002 197.958 73.4002V81.4002ZM205.328 77.2391C207.131 74.8956 208.29 71.985 208.973 68.7197L201.143 67.0808C200.626 69.5488 199.851 71.2382 198.987 72.3614L205.328 77.2391ZM208.979 68.6888L212.679 50.2888L204.836 48.7117L201.136 67.1117L208.979 68.6888ZM208.663 45.5014C204.817 45.5929 201.352 47.0824 198.348 49.6692L203.568 55.7313C205.364 54.1848 207.099 53.5409 208.853 53.4991L208.663 45.5014ZM198.355 49.6632C195.472 52.1337 193.268 55.3451 191.67 59.1513L199.046 62.2492C200.247 59.3887 201.777 57.2667 203.561 55.7373L198.355 49.6632ZM191.67 59.1513C190.057 62.9912 189.258 67.0527 189.258 71.3002H197.258C197.258 68.0811 197.858 65.076 199.046 62.2492L191.67 59.1513ZM189.258 71.3002C189.258 73.7568 189.711 76.3699 191.334 78.399L197.581 73.4015C197.605 73.431 197.519 73.3394 197.428 72.9906C197.336 72.6358 197.258 72.0899 197.258 71.3002H189.258ZM191.435 78.52C193.149 80.4979 195.472 81.4002 197.958 81.4002V73.4002C197.683 73.4002 197.572 73.3547 197.558 73.3487C197.549 73.3444 197.544 73.3414 197.539 73.3376C197.533 73.3334 197.513 73.318 197.481 73.2805L191.435 78.52ZM230.73 83.5002L226.985 84.9047L227 84.9454L227.017 84.9858L230.73 83.5002ZM232.93 46.0002L236.744 47.2063L236.748 47.1961L236.751 47.1858L232.93 46.0002ZM235.83 41.8002L238.01 45.154L238.03 45.1413L238.049 45.1284L235.83 41.8002ZM243.73 50.0002L239.867 48.9653L239.858 48.9976L239.85 49.0301L243.73 50.0002ZM242.13 57.0002L238.208 56.2158L242.13 57.0002ZM241.13 64.4002L237.147 64.0381L244.865 65.8332L241.13 64.4002ZM248.53 50.4002L245.345 47.9814L245.345 47.9814L248.53 50.4002ZM256.53 42.7002L254.537 39.2326L254.517 39.2436L254.499 39.2548L256.53 42.7002ZM269.43 53.2002L273.353 53.9847L273.36 53.9468L273.367 53.9089L269.43 53.2002ZM278.33 57.3002L275.502 54.4718L275.502 54.4718L278.33 57.3002ZM283.03 57.2002L279.575 59.2157L279.677 59.3899L279.796 59.5529L283.03 57.2002ZM281.83 66.0002L284.708 68.7786L284.718 68.7688L284.727 68.7589L281.83 66.0002ZM275.23 71.0002L277.133 74.5191L277.149 74.5102L277.165 74.5012L275.23 71.0002ZM259.23 70.3002L256.402 73.1287L256.428 73.1544L256.454 73.1796L259.23 70.3002ZM256.83 60.0002L260.753 60.7847L260.791 60.5929L260.811 60.3983L256.83 60.0002ZM251.93 59.1002L248.708 56.7307L248.702 56.7391L248.696 56.7476L251.93 59.1002ZM247.13 67.9002L243.464 66.3005L243.464 66.3005L247.13 67.9002ZM243.23 79.5002L239.346 78.5451L239.341 78.5669L239.336 78.5887L243.23 79.5002ZM240.63 85.9002L237.631 83.2538L237.626 83.26L237.62 83.2662L240.63 85.9002ZM236.13 83.5002C235.604 83.5002 235.384 83.3767 235.261 83.286C235.104 83.1693 234.779 82.8509 234.444 82.0147L227.017 84.9858C227.749 86.8163 228.857 88.4978 230.5 89.7145C232.177 90.9571 234.124 91.5002 236.13 91.5002V83.5002ZM234.476 82.0958C233.743 80.1413 233.23 76.4858 233.23 70.7002H225.23C225.23 76.648 225.718 81.5259 226.985 84.9047L234.476 82.0958ZM233.23 70.7002C233.23 62.4184 234.408 54.5936 236.744 47.2063L229.117 44.7942C226.519 53.0069 225.23 61.6488 225.23 70.7002H233.23ZM236.751 47.1858C237.151 45.8957 237.654 45.3857 238.01 45.154L233.651 38.4465C231.34 39.9481 229.91 42.2381 229.11 44.8146L236.751 47.1858ZM238.049 45.1284C238.552 44.7931 239.605 44.4002 241.63 44.4002V36.4002C238.722 36.4002 235.909 36.9408 233.612 38.472L238.049 45.1284ZM241.63 44.4002C242.148 44.4002 242.465 44.434 242.627 44.463C242.704 44.4766 242.71 44.4829 242.665 44.4675C242.622 44.4528 242.489 44.404 242.31 44.2922L246.55 37.5082C244.986 36.5303 243.044 36.4002 241.63 36.4002V44.4002ZM242.31 44.2922C241.813 43.9811 241.5 43.547 241.344 43.1775C241.211 42.8607 241.23 42.6872 241.23 42.8002H249.23C249.23 41.2061 248.755 38.8858 246.55 37.5082L242.31 44.2922ZM241.23 42.8002C241.23 42.794 241.228 42.9316 241.178 43.2792C241.131 43.6055 241.054 44.0362 240.94 44.5844C240.711 45.6817 240.357 47.1351 239.867 48.9653L247.594 51.0352C248.104 49.1321 248.5 47.5188 248.771 46.2161C249.024 45.0023 249.23 43.7822 249.23 42.8002H241.23ZM239.85 49.0301C239.173 51.7387 238.624 54.1365 238.208 56.2158L246.053 57.7847C246.437 55.864 246.955 53.5951 247.611 50.9704L239.85 49.0301ZM238.208 56.2158C237.771 58.4016 237.421 61.0193 237.147 64.0381L245.114 64.7624C245.373 61.9145 245.69 59.5989 246.053 57.7847L238.208 56.2158ZM244.865 65.8332C246.975 60.3356 249.277 56.0322 251.716 52.8191L245.345 47.9814C242.318 51.9683 239.686 56.9982 237.396 62.9672L244.865 65.8332ZM251.716 52.8191C254.277 49.4466 256.575 47.3177 258.562 46.1457L254.499 39.2548C251.286 41.1495 248.251 44.1539 245.345 47.9814L251.716 52.8191ZM258.524 46.1679C260.814 44.8514 262.554 44.4002 263.83 44.4002V36.4002C260.707 36.4002 257.58 37.4825 254.537 39.2326L258.524 46.1679ZM263.83 44.4002C265.381 44.4002 265.808 44.7851 265.877 44.8537C265.946 44.9223 266.33 45.3502 266.33 46.9002H274.33C274.33 44.117 273.632 41.2949 271.534 39.1968C269.436 37.0988 266.614 36.4002 263.83 36.4002V44.4002ZM266.33 46.9002C266.33 46.8997 266.33 46.9384 266.325 47.0283C266.319 47.1149 266.31 47.2305 266.295 47.3791C266.264 47.678 266.216 48.0682 266.146 48.5596C266.005 49.5423 265.79 50.8481 265.494 52.4916L273.367 53.9089C273.944 50.7025 274.33 48.2036 274.33 46.9002H266.33ZM265.508 52.4158C265.237 53.7733 265.026 54.9129 264.881 55.8183C264.749 56.6391 264.63 57.5109 264.63 58.2002H272.63C272.63 58.2229 272.645 57.928 272.78 57.0822C272.902 56.321 273.091 55.2939 273.353 53.9847L265.508 52.4158ZM264.63 58.2002C264.63 59.7223 264.881 61.5822 266.001 63.1502C267.298 64.9662 269.246 65.7002 271.13 65.7002V57.7002C271.179 57.7002 271.412 57.7094 271.728 57.8568C272.065 58.014 272.335 58.2543 272.51 58.5003C272.668 58.7215 272.692 58.8631 272.678 58.805C272.664 58.7452 272.63 58.5584 272.63 58.2002H264.63ZM271.13 65.7002C273.083 65.7002 274.884 64.9499 276.416 64.0134C277.981 63.0574 279.564 61.7239 281.159 60.1287L275.502 54.4718C274.164 55.8099 273.08 56.6764 272.245 57.1871C271.377 57.7173 271.045 57.7002 271.13 57.7002V65.7002ZM281.159 60.1287C281.344 59.9439 281.426 59.9121 281.391 59.9293C281.371 59.9388 281.325 59.958 281.257 59.9742C281.187 59.9907 281.11 60.0002 281.03 60.0002V52.0002C278.735 52.0002 276.875 53.099 275.502 54.4718L281.159 60.1287ZM281.03 60.0002C280.824 60.0002 280.48 59.9448 280.122 59.7302C279.777 59.5232 279.616 59.2862 279.575 59.2157L286.486 55.1848C285.362 53.2588 283.435 52.0002 281.03 52.0002V60.0002ZM279.796 59.5529C279.669 59.3789 279.83 59.4524 279.83 60.2002H287.83C287.83 58.4147 287.459 56.4883 286.265 54.8476L279.796 59.5529ZM279.83 60.2002C279.83 61.9348 279.379 62.7746 278.934 63.2416L284.727 68.7589C286.949 66.4259 287.83 63.399 287.83 60.2002H279.83ZM278.953 63.2219C277.383 64.8475 275.507 66.2771 273.296 67.4993L277.165 74.5012C280.02 72.9234 282.544 71.0196 284.708 68.7786L278.953 63.2219ZM273.328 67.4814C271.445 68.4994 269.465 69.0002 267.33 69.0002V77.0002C270.796 77.0002 274.082 76.1677 277.133 74.5191L273.328 67.4814ZM267.33 69.0002C264.45 69.0002 262.892 68.2741 262.007 67.4209L256.454 73.1796C259.302 75.9264 263.144 77.0002 267.33 77.0002V69.0002ZM262.059 67.4718C261.159 66.5716 260.53 65.2382 260.53 63.0002H252.53C252.53 66.8956 253.702 70.4289 256.402 73.1287L262.059 67.4718ZM260.53 63.0002C260.53 62.2688 260.603 61.5315 260.753 60.7847L252.908 59.2158C252.658 60.4689 252.53 61.7317 252.53 63.0002H260.53ZM260.811 60.3983C260.941 59.0917 261.03 57.9974 261.03 57.3002H253.03C253.03 57.5364 252.986 58.2421 252.85 59.6022L260.811 60.3983ZM261.03 57.3002C261.03 56.4327 260.904 55.0738 260.052 53.8341C259.014 52.3243 257.411 51.7002 255.93 51.7002V59.7002C255.629 59.7002 255.171 59.6441 254.667 59.3995C254.143 59.1458 253.736 58.7695 253.459 58.3664C252.974 57.66 253.03 57.1011 253.03 57.3002H261.03ZM255.93 51.7002C253.992 51.7002 252.489 52.7381 251.59 53.5025C250.589 54.3535 249.628 55.4788 248.708 56.7307L255.153 61.4698C255.899 60.455 256.439 59.8804 256.771 59.598C256.931 59.4623 256.961 59.4643 256.866 59.5108C256.768 59.558 256.438 59.7002 255.93 59.7002V51.7002ZM248.696 56.7476C246.866 59.2637 245.131 62.4798 243.464 66.3005L250.797 69.5C252.329 65.9873 253.795 63.3368 255.165 61.4529L248.696 56.7476ZM243.464 66.3005C241.769 70.1849 240.398 74.268 239.346 78.5451L247.115 80.4554C248.063 76.5991 249.292 72.9489 250.797 69.5L243.464 66.3005ZM239.336 78.5887C238.619 81.6501 237.924 82.9217 237.631 83.2538L243.63 88.5467C245.337 86.6121 246.375 83.617 247.125 80.4118L239.336 78.5887ZM237.62 83.2662C237.741 83.128 237.583 83.5002 236.13 83.5002V91.5002C238.811 91.5002 241.653 90.8059 243.641 88.5343L237.62 83.2662ZM312.338 68.9002L308.883 70.9157L308.944 71.0193L309.01 71.119L312.338 68.9002ZM311.438 78.4002L308.09 76.2112L308.086 76.2176L311.438 78.4002ZM304.038 85.1002L302.188 81.5539L302.172 81.5623L302.156 81.5708L304.038 85.1002ZM278.338 81.8002L275.385 84.4985L275.397 84.5113L275.409 84.524L278.338 81.8002ZM275.938 53.4002L279.528 55.1647L279.534 55.1528L279.54 55.1409L275.938 53.4002ZM283.938 43.9002L281.705 40.5819L281.69 40.592L281.675 40.6022L283.938 43.9002ZM304.938 43.9002L302.11 46.7287L302.13 46.7492L302.151 46.7694L304.938 43.9002ZM303.438 65.1002L300.61 62.2718L300.61 62.2718L303.438 65.1002ZM286.638 72.9002L285.691 69.014L280.73 70.2231L283.092 74.7505L286.638 72.9002ZM301.438 75.6002L299.136 72.329L299.107 72.3496L299.078 72.3707L301.438 75.6002ZM307.638 69.2002L304.515 66.7015L304.498 66.7229L304.481 66.7445L307.638 69.2002ZM287.638 54.5002L284.215 52.4306L284.198 52.46L284.18 52.4898L287.638 54.5002ZM285.138 65.1002H281.138V70.1605L286.062 68.9922L285.138 65.1002ZM294.438 60.9002L291.895 57.8125L291.895 57.8125L294.438 60.9002ZM296.738 51.4002L293.665 53.961L293.782 54.1004L293.91 54.2287L296.738 51.4002ZM310.338 71.7002C310.132 71.7002 309.788 71.6448 309.43 71.4302C309.085 71.2232 308.924 70.9862 308.883 70.9157L315.793 66.8848C314.67 64.9588 312.743 63.7002 310.338 63.7002V71.7002ZM309.01 71.119C308.948 71.0258 309.138 71.2481 309.138 72.2002H317.138C317.138 70.3524 316.795 68.3746 315.666 66.6814L309.01 71.119ZM309.138 72.2002C309.138 73.9492 308.734 75.227 308.09 76.2112L314.786 80.5892C316.409 78.1068 317.138 75.2513 317.138 72.2002H309.138ZM308.086 76.2176C306.599 78.5015 304.652 80.2682 302.188 81.5539L305.889 88.6466C309.558 86.7323 312.544 84.0323 314.79 80.5829L308.086 76.2176ZM302.156 81.5708C299.856 82.7974 296.934 83.5002 293.238 83.5002V91.5002C297.943 91.5002 302.22 90.6031 305.921 88.6297L302.156 81.5708ZM293.238 83.5002C287.671 83.5002 283.873 81.8789 281.268 79.0765L275.409 84.524C279.87 89.3215 286.005 91.5002 293.238 91.5002V83.5002ZM281.291 79.102C278.587 76.1428 277.038 71.9925 277.038 66.2002H269.038C269.038 73.4746 271.023 79.7244 275.385 84.4985L281.291 79.102ZM277.038 66.2002C277.038 62.1809 277.878 58.5217 279.528 55.1647L272.348 51.6358C270.132 56.1454 269.038 61.0196 269.038 66.2002H277.038ZM279.54 55.1409C281.194 51.7176 283.42 49.1075 286.202 47.1983L281.675 40.6022C277.657 43.3597 274.549 47.0829 272.337 51.6596L279.54 55.1409ZM286.172 47.2186C288.953 45.3467 292.069 44.4002 295.638 44.4002V36.4002C290.54 36.4002 285.857 37.7871 281.705 40.5819L286.172 47.2186ZM295.638 44.4002C298.641 44.4002 300.655 45.2739 302.11 46.7287L307.767 41.0718C304.555 37.86 300.369 36.4002 295.638 36.4002V44.4002ZM302.151 46.7694C303.551 48.1291 304.438 50.1054 304.438 53.2002H312.438C312.438 48.4284 310.992 44.2047 307.725 41.0311L302.151 46.7694ZM304.438 53.2002C304.438 56.7103 303.214 59.6678 300.61 62.2718L306.267 67.9287C310.329 63.866 312.438 58.8902 312.438 53.2002H304.438ZM300.61 62.2718C298.123 64.7587 293.387 67.1385 285.691 69.014L287.585 76.7865C295.756 74.7953 302.22 71.9751 306.267 67.9287L300.61 62.2718ZM283.092 74.7505C284.206 76.8859 285.794 78.6392 287.888 79.8285C289.961 81.0059 292.3 81.5002 294.738 81.5002V73.5002C293.377 73.5002 292.465 73.2279 291.839 72.872C291.233 72.528 290.671 71.9813 290.185 71.05L283.092 74.7505ZM294.738 81.5002C298.087 81.5002 301.213 80.7191 303.798 78.8298L299.078 72.3707C298.197 73.0147 296.856 73.5002 294.738 73.5002V81.5002ZM303.74 78.8715C306.016 77.2698 308.368 74.7768 310.796 71.656L304.481 66.7445C302.241 69.6237 300.46 71.3973 299.136 72.329L303.74 78.8715ZM310.762 71.699C310.913 71.5095 310.957 71.5158 310.856 71.5719C310.803 71.601 310.725 71.6359 310.625 71.6623C310.524 71.6888 310.426 71.7002 310.338 71.7002V63.7002C307.795 63.7002 305.842 65.0422 304.515 66.7015L310.762 71.699ZM293.938 46.2002C289.589 46.2002 286.382 48.8467 284.215 52.4306L291.061 56.5699C292.361 54.4205 293.355 54.2002 293.938 54.2002V46.2002ZM284.18 52.4898C282.086 56.0912 281.138 60.2864 281.138 64.9002H289.138C289.138 61.3808 289.857 58.6426 291.096 56.5107L284.18 52.4898ZM281.138 64.9002V65.1002H289.138V64.9002H281.138ZM286.062 68.9922C290.378 67.968 294.1 66.3605 296.981 63.988L291.895 57.8125C290.243 59.1733 287.765 60.3658 284.215 61.2083L286.062 68.9922ZM296.981 63.988C299.976 61.5218 301.838 58.2934 301.838 54.4002H293.838C293.838 55.4404 293.434 56.5453 291.895 57.8125L296.981 63.988ZM301.838 54.4002C301.838 52.3227 301.21 50.2153 299.567 48.5718L293.91 54.2287C293.888 54.2066 293.864 54.1773 293.842 54.1435C293.821 54.1101 293.811 54.0854 293.808 54.0773C293.802 54.0615 293.838 54.15 293.838 54.4002H301.838ZM299.811 48.8395C298.264 46.9829 296.123 46.2002 293.938 46.2002V54.2002C294.094 54.2002 294.076 54.2254 293.963 54.1768C293.908 54.1533 293.847 54.1193 293.788 54.0752C293.73 54.0314 293.689 53.9896 293.665 53.961L299.811 48.8395Z" fill="#22226B"/>
</svg>
