<svg width="35" height="35" viewBox="0 0 35 35" fill="none" xmlns="http://www.w3.org/2000/svg">
<path d="M26.4727 15.3748C30.7907 15.3748 34.2911 11.9616 34.2911 7.75127C34.2911 3.54093 30.7907 0.127777 26.4727 0.127777C22.1547 0.127777 18.6543 3.54093 18.6543 7.75127C18.6543 11.9616 22.1547 15.3748 26.4727 15.3748Z" fill="white"/>
<path d="M0 0.127778V15.3748L0.18457 15.5547H15.8213L15.9524 15.247L0.315615 0L0 0.127778ZM2.22222 13.3879V4.92395L10.9025 13.3879H2.22222Z" fill="white"/>
<path d="M26.4727 19.3881C22.0596 19.3881 18.4697 22.8885 18.4697 27.1915C18.4697 31.4946 22.0596 34.995 26.4727 34.995C30.8857 34.995 34.4756 31.4946 34.4756 27.1915C34.4756 22.8885 30.8857 19.3881 26.4727 19.3881ZM32.2534 27.1915C32.2534 30.2996 29.6602 32.8282 26.4727 32.8282C23.2852 32.8282 20.6919 30.2996 20.6919 27.1915C20.6919 24.0835 23.2852 21.5549 26.4727 21.5549C29.6602 21.5549 32.2534 24.0835 32.2534 27.1915Z" fill="white"/>
<path d="M15.8213 19.0785H0.18457V34.3255H15.8213V19.0785Z" fill="white"/>
</svg>
