<svg width="138" height="42" viewBox="0 0 138 42" fill="none" xmlns="http://www.w3.org/2000/svg">
<path d="M45.8184 0.0483398H36.5776V39.9088H45.8184V0.0483398Z" fill="#0A013D"/>
<path d="M10.1794 0.990234H0.987305V39.4376H22.7387V31.3335H10.1794V0.990234Z" fill="#0A013D"/>
<path d="M25.3446 12.3455V14.4272H16.4507V23.4986H25.3446V39.9088H34.5388V0.0483398H25.3446V12.3455Z" fill="#0A013D"/>
<path d="M73.3758 4.66623C72.0645 3.15853 70.5713 2.09031 68.8982 1.46158C67.2231 0.832847 65.5184 0.519531 63.7798 0.519531C62.0094 0.519531 60.2878 0.832847 58.6148 1.46158C56.9396 2.09031 55.4464 3.15853 54.1372 4.66623C52.8258 6.17393 51.7746 8.19261 50.9857 10.7202C50.1947 13.2477 49.8013 16.4124 49.8013 20.2143C49.8013 24.0161 50.1968 27.1787 50.9857 29.7084C51.7746 32.2359 52.8258 34.2546 54.1372 35.7623C55.4485 37.27 56.9396 38.3382 58.6148 38.9669C60.2899 39.5957 62.0094 39.909 63.7798 39.909C65.5162 39.909 67.2231 39.5957 68.8982 38.9669C70.5734 38.3382 72.0645 37.27 73.3758 35.7623C74.6872 34.2546 75.7447 32.2359 76.5506 29.7084C77.3564 27.1808 77.7583 24.0161 77.7583 20.2143C77.7583 16.4124 77.3564 13.2498 76.5506 10.7202C75.7447 8.19261 74.6872 6.17393 73.3758 4.66623ZM67.5954 26.1273C67.3585 27.6518 67.0497 28.8294 66.6711 29.6621C66.2925 30.4948 65.8483 31.0604 65.3449 31.359C64.8394 31.6576 64.3191 31.8069 63.7819 31.8069C63.2129 31.8069 62.6757 31.6576 62.1702 31.359C61.6647 31.0604 61.2142 30.4864 60.8187 29.639C60.4231 28.7915 60.1143 27.6119 59.8944 26.1042C59.6723 24.5965 59.5623 22.6346 59.5623 20.2143C59.5623 17.796 59.6723 15.832 59.8944 14.3243C60.1143 12.8166 60.4231 11.6391 60.8187 10.7896C61.2142 9.94213 61.6626 9.36807 62.1702 9.06947C62.6757 8.77088 63.2129 8.62158 63.7819 8.62158C64.3191 8.62158 64.8394 8.77088 65.3449 9.06947C65.8504 9.36807 66.2925 9.93372 66.6711 10.7664C67.0497 11.5991 67.3585 12.7683 67.5954 14.276C67.8322 15.7837 67.9507 17.7477 67.9507 20.1659C67.9507 22.6177 67.8322 24.6049 67.5954 26.1273Z" fill="#0A013D"/>
<path d="M90.6495 0.0483398H80.8398V39.9088H90.6495V0.0483398Z" fill="#0A013D"/>
<path d="M121.785 0.519531H96.7153V22.2392H121.785V0.519531ZM112.496 14.6061H106.003V8.15055H112.496V14.6061Z" fill="#0A013D"/>
<path d="M136.145 0.0483398H126.335V23.3704H136.145V0.0483398Z" fill="#0A013D"/>
<path d="M135.766 28.9536C134.882 27.8392 133.602 26.9202 131.927 26.1969C130.252 25.4756 128.198 24.9478 125.766 24.6177C123.333 24.2876 120.569 24.1235 117.472 24.1235C114.376 24.1235 111.612 24.2876 109.179 24.6177C106.747 24.9478 104.693 25.4735 103.018 26.1969C101.343 26.9202 100.063 27.8392 99.1792 28.9536C98.2951 30.0681 97.853 31.3971 97.853 32.9342C97.853 34.505 98.2951 35.8466 99.1792 36.9632C100.063 38.0776 101.343 38.9903 103.018 39.6968C104.693 40.4033 106.747 40.929 109.179 41.276C111.612 41.6208 114.376 41.7933 117.472 41.7933C120.569 41.7933 123.333 41.6208 125.766 41.276C128.198 40.929 130.252 40.4033 131.927 39.6968C133.602 38.9903 134.879 38.0798 135.766 36.9632C136.65 35.8487 137.092 34.505 137.092 32.9342C137.092 31.3971 136.65 30.0681 135.766 28.9536ZM124.651 34.5849C122.898 34.9298 120.503 35.1043 117.472 35.1043C114.439 35.1043 112.047 34.9319 110.294 34.5849C108.54 34.2401 107.663 33.6891 107.663 32.9363C107.663 32.1814 108.538 31.6326 110.294 31.2877C112.047 30.9429 114.442 30.7705 117.472 30.7705C120.505 30.7705 122.898 30.9429 124.651 31.2877C126.404 31.6347 127.282 32.1835 127.282 32.9363C127.282 33.6891 126.406 34.2401 124.651 34.5849Z" fill="#0A013D"/>
</svg>
